HIERARCHY
ROOT root
{
	OFFSET 0.000000 0.000000 0.000000
	CHANNELS 6 Xposition Yposition Zposition Zrotation Yrotation Xrotation
	JOINT lhip
	{
		OFFSET 0.058581 -0.082280 -0.017664
		CHANNELS 3 Zrotation Yrotation Xrotation
		JOINT lknee
		{
			OFFSET 0.043451 -0.386469 0.008037
			CHANNELS 3 Zrotation Yrotation Xrotation
			JOINT lankle
			{
				OFFSET -0.014790 -0.426874 -0.037428
				CHANNELS 3 Zrotation Yrotation Xrotation
				JOINT ltoe
				{
					OFFSET 0.041054 -0.060286 0.122042
					CHANNELS 3 Zrotation Yrotation Xrotation
					End Site
					{
						OFFSET 0.000000 0.000000 0.000000
					}
				}
			}
		}
	}
	JOINT rhip
	{
		OFFSET -0.060310 -0.090513 -0.013543
		CHANNELS 3 Zrotation Yrotation Xrotation
		JOINT rknee
		{
			OFFSET -0.043257 -0.383688 -0.004843
			CHANNELS 3 Zrotation Yrotation Xrotation
			JOINT rankle
			{
				OFFSET 0.019056 -0.420046 -0.034562
				CHANNELS 3 Zrotation Yrotation Xrotation
				JOINT rtoe
				{
					OFFSET -0.034840 -0.062106 0.130323
					CHANNELS 3 Zrotation Yrotation Xrotation
					End Site
					{
						OFFSET 0.000000 0.000000 0.000000
					}
				}
			}
		}
	}
	JOINT lowerback
	{
		OFFSET 0.004439 0.124404 -0.038385
		CHANNELS 3 Zrotation Yrotation Xrotation
		JOINT upperback
		{
			OFFSET 0.004488 0.137956 0.026820
			CHANNELS 3 Zrotation Yrotation Xrotation
			JOINT chest
			{
				OFFSET -0.002265 0.056032 0.002855
				CHANNELS 3 Zrotation Yrotation Xrotation
				JOINT lowerneck
				{
					OFFSET -0.013390 0.211636 -0.033468
					CHANNELS 3 Zrotation Yrotation Xrotation
					JOINT upperneck
					{
						OFFSET 0.010113 0.088937 0.050410
						CHANNELS 3 Zrotation Yrotation Xrotation
						End Site
						{
							OFFSET 0.000000 0.000000 0.000000
						}
					}
				}
				JOINT lclavicle
				{
					OFFSET 0.071702 0.114000 -0.018898
					CHANNELS 3 Zrotation Yrotation Xrotation
					JOINT lshoulder
					{
						OFFSET 0.122921 0.045205 -0.019046
						CHANNELS 3 Zrotation Yrotation Xrotation
						JOINT lelbow
						{
							OFFSET 0.255332 -0.015649 -0.022946
							CHANNELS 3 Zrotation Yrotation Xrotation
							JOINT lwrist
							{
								OFFSET 0.265709 0.012698 -0.007375
								CHANNELS 3 Zrotation Yrotation Xrotation
								End Site
								{
									OFFSET 0.000000 0.000000 0.000000
								}
							}
						}
					}
				}
				JOINT rclavicle
				{
					OFFSET -0.082954 0.112472 -0.023707
					CHANNELS 3 Zrotation Yrotation Xrotation
					JOINT rshoulder
					{
						OFFSET -0.113228 0.046853 -0.008472
						CHANNELS 3 Zrotation Yrotation Xrotation
						JOINT relbow
						{
							OFFSET -0.260127 -0.014369 -0.031269
							CHANNELS 3 Zrotation Yrotation Xrotation
							JOINT rwrist
							{
								OFFSET -0.269108 0.006794 -0.006027
								CHANNELS 3 Zrotation Yrotation Xrotation
								End Site
								{
									OFFSET 0.000000 0.000000 0.000000
								}
							}
						}
					}
				}
			}
		}
	}
}
MOTION
Frames: 11
Frame Time: 0.033333
-1.730441 0.254525 0.994717 81.119720 -2.293066 91.922090 -1.646762 -6.355161 -24.291052 -3.211640 1.151881 2.422315 0.074039 8.261849 -6.553432 0.000000 -0.000000 0.000000 -1.793638 -3.832730 7.602982 -0.763855 4.406471 19.210179 3.106809 -7.053431 -19.702728 0.000000 -0.000000 0.000000 -1.115074 9.314824 15.365071 -1.573690 2.052789 -2.117852 -0.233222 1.731153 3.803884 -2.223980 7.729989 -10.068973 -4.600006 -2.732228 7.524134 -26.476341 9.499378 0.301843 -54.420400 -0.820174 10.569098 8.920663 -32.641012 6.913760 -4.040017 -2.785485 -5.056660 30.234498 2.435681 0.685450 54.089543 10.944086 9.834431 -13.315002 5.019209 -15.713608 7.097714 1.193597 -7.367809 
-1.703737 0.257486 0.992766 80.792386 -2.288644 92.688027 -2.302662 -6.982486 -23.742643 -3.093361 0.396902 2.973064 1.069431 7.654629 -4.600865 0.000000 -0.000000 0.000000 -2.328458 -3.427038 7.608672 -0.778049 4.868075 20.563093 3.952626 -6.892576 -17.634067 0.000000 -0.000000 0.000000 -1.670490 9.539628 14.295826 -1.626910 2.231098 -2.567744 -0.408601 1.802361 3.542576 -2.050690 7.530820 -9.423604 -4.331325 -2.419387 7.407468 -26.348920 10.044621 0.356218 -54.228442 -0.482221 10.583619 8.721690 -31.881605 7.162474 -4.669029 -2.771989 -5.321462 30.390252 1.823407 0.577818 54.082827 10.732487 10.049966 -13.366624 5.428933 -16.128936 7.521879 1.148720 -7.718245 
-1.676335 0.261355 0.993445 81.354058 -2.728286 93.089467 -3.326236 -7.674118 -23.350487 -3.319404 -0.642947 3.882908 1.567632 7.735764 -2.026425 0.000000 -0.000000 0.000000 -3.116201 -3.185663 7.611468 -1.099955 4.380202 22.608222 4.760189 -6.533509 -14.658543 0.000000 -0.000000 0.000000 -1.981307 9.301351 13.733284 -1.838353 1.789583 -2.611957 -0.892155 2.017001 3.157538 -2.111267 7.152302 -8.692142 -4.052374 -2.096438 7.118516 -26.197279 9.865056 0.532859 -53.898133 -0.290949 10.658279 8.686045 -31.175931 7.057846 -5.265343 -2.597506 -5.094583 30.324433 1.764724 0.803365 54.437884 10.681548 10.087626 -13.608136 5.379988 -16.656050 7.825449 1.139409 -8.146219 
-1.647170 0.265838 0.995769 81.772724 -3.171738 93.025774 -3.881072 -8.340319 -22.567240 -4.207982 -0.808255 5.701897 2.187503 7.739591 -2.833806 0.000000 -0.000000 0.000000 -3.974030 -3.053567 6.965855 -1.250882 4.390721 26.615311 5.854330 -6.559682 -10.901144 0.000000 -0.000000 0.000000 -2.465821 9.652557 13.066458 -1.815350 2.060029 -2.286865 -1.034325 1.945755 3.135307 -2.012294 6.496867 -8.340727 -3.876840 -1.972971 7.281296 -26.054943 9.232676 0.567410 -53.956636 -0.746481 10.882642 8.873788 -30.523591 7.405999 -5.793298 -2.533672 -4.686161 30.157722 1.588323 0.650596 54.384237 10.222542 10.084934 -13.831577 5.205501 -17.409897 7.893313 1.114399 -8.591907 
-1.617169 0.270613 0.999481 82.227428 -3.560976 92.595731 -4.784411 -8.867091 -20.971215 -5.094514 -2.188146 7.298845 3.150450 8.164364 -4.681887 0.000000 -0.000000 0.000000 -4.834343 -2.698561 5.546548 -1.176308 4.267712 32.133077 6.489330 -6.487517 -5.154212 0.000000 -0.000000 0.000000 -2.750592 9.526788 12.783210 -1.857354 2.372888 -2.152933 -1.267737 2.089194 3.194341 -1.759045 5.671375 -7.854955 -3.690942 -1.847792 7.666261 -25.883165 9.069347 0.193693 -53.899160 -1.195946 11.081489 8.937671 -30.857990 7.918484 -6.064399 -2.021970 -4.201685 30.158153 1.377936 0.402802 54.089697 9.824506 10.081261 -14.099950 5.314564 -18.448413 8.082613 1.005354 -8.765149 
-1.587668 0.275643 1.003088 82.701606 -3.695891 91.969351 -6.105005 -8.997446 -18.180941 -5.296317 -3.229893 7.170045 4.775229 8.571349 -6.016987 0.000000 -0.000000 0.000000 -5.225817 -1.857913 2.487539 -0.792465 4.388069 39.939004 7.021534 -6.604384 2.484673 0.000000 -0.000000 0.000000 -3.084961 8.744878 12.472087 -1.611901 3.042530 -2.061881 -1.410378 2.234240 3.291149 -1.442669 4.929608 -6.919448 -3.651269 -1.279081 8.237501 -25.808935 9.301423 0.073759 -53.801784 -1.765858 11.311936 8.949143 -32.184036 8.066900 -6.671966 -1.828508 -4.269752 29.959811 0.957583 -0.086835 53.856367 9.681157 10.328948 -14.551679 5.523622 -19.688757 8.728683 1.201055 -8.841230 
-1.559590 0.279678 1.005364 83.685308 -3.661857 91.316366 -7.582482 -8.550213 -15.171579 -5.133835 -4.994948 6.449760 6.549341 9.239914 -6.628693 0.000000 -0.000000 0.000000 -4.971034 -0.821282 -1.339205 -0.324188 4.427604 48.365205 6.507525 -7.032101 8.404382 0.000000 -0.000000 0.000000 -3.502105 7.406281 12.482059 -1.202914 3.418102 -2.470969 -1.470098 1.949898 3.441549 -0.758169 4.460394 -5.996742 -3.824153 -0.737952 9.109850 -25.427576 9.775344 0.371696 -53.959537 -2.281381 11.450626 9.161650 -34.066451 8.072302 -7.257447 -2.262632 -5.285671 29.551941 0.670048 -0.775203 53.791451 9.822896 10.891751 -14.902288 5.917912 -20.291720 9.326496 1.313090 -9.198211 
-1.531866 0.283057 1.007138 85.182575 -3.832065 90.020563 -8.899229 -8.048383 -11.816847 -5.460658 -6.990636 6.533918 7.460094 9.794919 -7.764809 0.000000 -0.000000 0.000000 -4.961132 0.007834 -4.385292 0.311822 3.596500 55.670855 5.679042 -8.743735 9.077084 0.000000 -0.000000 0.000000 -3.917689 5.970840 12.993416 -0.896539 3.254205 -2.691904 -1.779972 1.410507 3.655077 0.332657 4.579309 -4.999582 -4.032313 -0.530061 9.999977 -25.277427 9.792150 0.754569 -53.209534 -2.990366 11.349655 8.929740 -36.063525 8.042554 -7.540308 -2.782548 -6.225579 29.696666 0.680106 -1.629598 53.281809 9.715585 11.482563 -15.057219 7.019862 -20.436734 9.812652 1.423813 -9.161684 
-1.505503 0.285486 1.009658 87.229094 -3.718304 88.648898 -9.724165 -7.249849 -8.671387 -5.892141 -9.280809 7.024447 7.476853 10.049152 -9.104388 0.000000 -0.000000 0.000000 -4.698635 0.345933 -7.146453 0.179096 1.875838 60.970997 5.596767 -9.532108 5.320500 0.000000 -0.000000 0.000000 -3.936177 4.396824 13.656486 -0.577588 2.735736 -2.762736 -2.071235 0.807625 3.709785 1.230837 5.002964 -3.916960 -4.158183 -0.722793 10.869631 -25.212263 8.870720 0.848128 -52.267557 -3.631923 11.371176 8.474215 -37.402485 7.902196 -7.449791 -2.946886 -6.252314 29.898027 1.029173 -2.132507 52.539916 9.723378 11.286185 -15.095284 8.000814 -20.696340 10.045871 1.444772 -9.187114 
-1.480016 0.287125 1.012436 89.388958 -3.249665 87.473136 -10.109088 -6.046982 -5.731847 -5.980778 -11.701231 7.473514 7.471985 9.749736 -10.112322 0.000000 -0.000000 0.000000 -4.185060 0.636265 -9.893103 -0.303353 0.216197 63.716709 5.362620 -9.881073 1.748490 0.000000 -0.000000 0.000000 -3.531279 2.925260 14.064675 -0.306738 2.313197 -2.791841 -2.297137 0.151415 3.673889 1.868937 5.284986 -2.476249 -4.108224 -0.902123 11.689173 -24.886784 7.367691 1.093477 -51.677162 -4.736442 11.405179 8.318876 -37.866286 7.928165 -7.568346 -2.653291 -5.450497 29.688931 1.446970 -2.385802 52.193877 9.393917 10.784185 -15.013777 8.549087 -20.921083 10.447929 1.754145 -9.499901 
-1.456150 0.288119 1.014402 91.430397 -2.705938 86.503821 -10.164251 -5.189170 -3.023981 -6.012882 -13.991045 7.619778 7.574451 9.806087 -10.790686 0.000000 -0.000000 0.000000 -3.856026 1.074911 -13.114577 -0.243727 -1.053426 64.963190 5.279712 -10.617551 -1.456570 0.000000 -0.000000 0.000000 -3.253357 1.486101 14.399023 0.019354 2.018588 -2.977105 -2.352097 -0.598303 3.787907 2.392747 5.848927 -1.344868 -4.202637 -0.966365 12.839907 -24.526133 6.215423 1.014811 -51.331389 -6.255828 11.510039 8.407490 -38.074754 7.912416 -7.293796 -2.348075 -4.339803 29.556771 1.426709 -2.903183 52.018550 9.166097 10.630800 -15.091462 9.191893 -21.049379 10.744868 1.909531 -9.509764 
